HIERARCHY
ROOT Root
{
  OFFSET 0.0 0.0 0.0
  CHANNELS 6 Xposition Yposition Zposition Zrotation Yrotation Xrotation
  JOINT Hips
  {
    OFFSET 0.0 100.0 0.0
    CHANNELS 6 Xposition Yposition Zposition Zrotation Yrotation Xrotation
    JOINT Spine1
    {
      OFFSET 5.003913 -0.037094 -0.013727
      CHANNELS 3 Zrotation Yrotation Xrotation
      JOINT Spine2
      {
        OFFSET 7.125363 -1e-06 0.0
        CHANNELS 3 Zrotation Yrotation Xrotation
        JOINT Chest
        {
          OFFSET 7.594027 1e-06 0.0
          CHANNELS 3 Zrotation Yrotation Xrotation
          JOINT Neck1
          {
            OFFSET 26.313086 -0.460272 -0.181672
            CHANNELS 3 Zrotation Yrotation Xrotation
            JOINT Neck2
            {
              OFFSET 8.045911 0.0 0.0
              CHANNELS 3 Zrotation Yrotation Xrotation
              JOINT Head
              {
                OFFSET 6.432774 0.0 0.0
                CHANNELS 3 Zrotation Yrotation Xrotation
                JOINT HeadEnd
                {
                  OFFSET 16.169773 0.06451 0.00362
                  CHANNELS 3 Zrotation Yrotation Xrotation
                }
                JOINT Jaw
                {
                  OFFSET 0.108741 3.12938 0.002639
                  CHANNELS 3 Zrotation Yrotation Xrotation
                }
                JOINT LeftEye
                {
                  OFFSET 4.45173 8.166359 3.206392
                  CHANNELS 3 Zrotation Yrotation Xrotation
                }
                JOINT RightEye
                {
                  OFFSET 4.436895 8.135758 -3.222429
                  CHANNELS 3 Zrotation Yrotation Xrotation
                }
              }
            }
          }
          JOINT LeftShoulder
          {
            OFFSET 23.218927 5.195579 1.621656
            CHANNELS 3 Zrotation Yrotation Xrotation
            JOINT LeftArm
            {
              OFFSET 15.902118 2e-06 -2e-06
              CHANNELS 3 Zrotation Yrotation Xrotation
              JOINT LeftForeArm
              {
                OFFSET 28.739307 0.0 -1e-06
                CHANNELS 3 Zrotation Yrotation Xrotation
                JOINT LeftHand
                {
                  OFFSET 27.093981 -4e-06 0.0
                  CHANNELS 3 Zrotation Yrotation Xrotation
                  JOINT LeftHandThumb1
                  {
                    OFFSET 2.276781 3.380274 0.83384
                    CHANNELS 3 Zrotation Yrotation Xrotation
                    JOINT LeftHandThumb2
                    {
                      OFFSET 4.705309 -1e-06 -1e-06
                      CHANNELS 3 Zrotation Yrotation Xrotation
                      JOINT LeftHandThumb3
                      {
                        OFFSET 2.798515 0.0 3e-06
                        CHANNELS 3 Zrotation Yrotation Xrotation
                        JOINT LeftHandThumbEnd
                        {
                          OFFSET 3.180793 4e-06 -4e-06
                          CHANNELS 3 Zrotation Yrotation Xrotation
                        }
                      }
                    }
                  }
                  JOINT LeftHandIndex1
                  {
                    OFFSET 3.247786 2.352677 0.137192
                    CHANNELS 3 Zrotation Yrotation Xrotation
                    JOINT LeftHandIndex2
                    {
                      OFFSET 6.367095 1e-06 0.0
                      CHANNELS 3 Zrotation Yrotation Xrotation
                      JOINT LeftHandIndex3
                      {
                        OFFSET 3.662364 0.0 0.0
                        CHANNELS 3 Zrotation Yrotation Xrotation
                        JOINT LeftHandIndex4
                        {
                          OFFSET 2.329242 4e-06 -4e-06
                          CHANNELS 3 Zrotation Yrotation Xrotation
                          JOINT LeftHandIndexEnd
                          {
                            OFFSET 2.767823 1e-06 0.0
                            CHANNELS 3 Zrotation Yrotation Xrotation
                          }
                        }
                      }
                    }
                  }
                  JOINT LeftHandMiddle1
                  {
                    OFFSET 3.163612 0.945023 -0.406112
                    CHANNELS 3 Zrotation Yrotation Xrotation
                    JOINT LeftHandMiddle2
                    {
                      OFFSET 6.276789 3e-06 0.0
                      CHANNELS 3 Zrotation Yrotation Xrotation
                      JOINT LeftHandMiddle3
                      {
                        OFFSET 4.35652 -1e-06 4e-06
                        CHANNELS 3 Zrotation Yrotation Xrotation
                        JOINT LeftHandMiddle4
                        {
                          OFFSET 2.996877 0.0 8e-06
                          CHANNELS 3 Zrotation Yrotation Xrotation
                          JOINT LeftHandMiddleEnd
                          {
                            OFFSET 2.323256 3e-06 -4e-06
                            CHANNELS 3 Zrotation Yrotation Xrotation
                          }
                        }
                      }
                    }
                  }
                  JOINT LeftHandRing1
                  {
                    OFFSET 2.882606 -0.309162 0.107445
                    CHANNELS 3 Zrotation Yrotation Xrotation
                    JOINT LeftHandRing2
                    {
                      OFFSET 6.033198 0.0 4e-06
                      CHANNELS 3 Zrotation Yrotation Xrotation
                      JOINT LeftHandRing3
                      {
                        OFFSET 4.350578 3e-06 0.0
                        CHANNELS 3 Zrotation Yrotation Xrotation
                        JOINT LeftHandRing4
                        {
                          OFFSET 2.651321 2e-06 -7e-06
                          CHANNELS 3 Zrotation Yrotation Xrotation
                          JOINT LeftHandRingEnd
                          {
                            OFFSET 1.937663 1e-06 -4e-06
                            CHANNELS 3 Zrotation Yrotation Xrotation
                          }
                        }
                      }
                    }
                  }
                  JOINT LeftHandPinky1
                  {
                    OFFSET 2.865315 -1.525436 0.575687
                    CHANNELS 3 Zrotation Yrotation Xrotation
                    JOINT LeftHandPinky2
                    {
                      OFFSET 5.54936 1e-06 -8e-06
                      CHANNELS 3 Zrotation Yrotation Xrotation
                      JOINT LeftHandPinky3
                      {
                        OFFSET 3.070974 0.0 -4e-06
                        CHANNELS 3 Zrotation Yrotation Xrotation
                        JOINT LeftHandPinky4
                        {
                          OFFSET 1.549672 1e-06 0.0
                          CHANNELS 3 Zrotation Yrotation Xrotation
                          JOINT LeftHandPinkyEnd
                          {
                            OFFSET 1.952123 0.0 0.0
                            CHANNELS 3 Zrotation Yrotation Xrotation
                          }
                        }
                      }
                    }
                  }
                }
              }
            }
          }
          JOINT RightShoulder
          {
            OFFSET 23.161716 5.296122 -1.380114
            CHANNELS 3 Zrotation Yrotation Xrotation
            JOINT RightArm
            {
              OFFSET -16.027195 -2e-06 1.1e-05
              CHANNELS 3 Zrotation Yrotation Xrotation
              JOINT RightForeArm
              {
                OFFSET -28.736639 4e-06 2e-06
                CHANNELS 3 Zrotation Yrotation Xrotation
                JOINT RightHand
                {
                  OFFSET -27.133619 6e-06 0.0
                  CHANNELS 3 Zrotation Yrotation Xrotation
                  JOINT RightHandThumb1
                  {
                    OFFSET -2.274328 -3.351035 -0.83067
                    CHANNELS 3 Zrotation Yrotation Xrotation
                    JOINT RightHandThumb2
                    {
                      OFFSET -4.703594 -3e-06 2e-06
                      CHANNELS 3 Zrotation Yrotation Xrotation
                      JOINT RightHandThumb3
                      {
                        OFFSET -2.794935 -4e-06 -3e-06
                        CHANNELS 3 Zrotation Yrotation Xrotation
                        JOINT RightHandThumbEnd
                        {
                          OFFSET -3.183852 4e-06 1e-06
                          CHANNELS 3 Zrotation Yrotation Xrotation
                        }
                      }
                    }
                  }
                  JOINT RightHandIndex1
                  {
                    OFFSET -3.253496 -2.33755 -0.127667
                    CHANNELS 3 Zrotation Yrotation Xrotation
                    JOINT RightHandIndex2
                    {
                      OFFSET -6.344434 0.0 0.0
                      CHANNELS 3 Zrotation Yrotation Xrotation
                      JOINT RightHandIndex3
                      {
                        OFFSET -3.654871 0.0 -8e-06
                        CHANNELS 3 Zrotation Yrotation Xrotation
                        JOINT RightHandIndex4
                        {
                          OFFSET -2.327586 -1e-06 0.0
                          CHANNELS 3 Zrotation Yrotation Xrotation
                          JOINT RightHandIndexEnd
                          {
                            OFFSET -2.770001 3e-06 8e-06
                            CHANNELS 3 Zrotation Yrotation Xrotation
                          }
                        }
                      }
                    }
                  }
                  JOINT RightHandMiddle1
                  {
                    OFFSET -3.168223 -0.944764 0.411762
                    CHANNELS 3 Zrotation Yrotation Xrotation
                    JOINT RightHandMiddle2
                    {
                      OFFSET -6.266691 -1e-06 -4e-06
                      CHANNELS 3 Zrotation Yrotation Xrotation
                      JOINT RightHandMiddle3
                      {
                        OFFSET -4.348901 0.0 0.0
                        CHANNELS 3 Zrotation Yrotation Xrotation
                        JOINT RightHandMiddle4
                        {
                          OFFSET -3.00024 2e-06 -4e-06
                          CHANNELS 3 Zrotation Yrotation Xrotation
                          JOINT RightHandMiddleEnd
                          {
                            OFFSET -2.321477 -4e-06 -4e-06
                            CHANNELS 3 Zrotation Yrotation Xrotation
                          }
                        }
                      }
                    }
                  }
                  JOINT RightHandRing1
                  {
                    OFFSET -2.885654 0.293261 -0.119232
                    CHANNELS 3 Zrotation Yrotation Xrotation
                    JOINT RightHandRing2
                    {
                      OFFSET -6.032835 -1e-06 -4e-06
                      CHANNELS 3 Zrotation Yrotation Xrotation
                      JOINT RightHandRing3
                      {
                        OFFSET -4.33881 0.0 -4e-06
                        CHANNELS 3 Zrotation Yrotation Xrotation
                        JOINT RightHandRing4
                        {
                          OFFSET -2.654903 -4e-06 -4e-06
                          CHANNELS 3 Zrotation Yrotation Xrotation
                          JOINT RightHandRingEnd
                          {
                            OFFSET -1.935122 0.0 4e-06
                            CHANNELS 3 Zrotation Yrotation Xrotation
                          }
                        }
                      }
                    }
                  }
                  JOINT RightHandPinky1
                  {
                    OFFSET -2.866241 1.503904 -0.60527
                    CHANNELS 3 Zrotation Yrotation Xrotation
                    JOINT RightHandPinky2
                    {
                      OFFSET -5.553177 -2e-06 0.0
                      CHANNELS 3 Zrotation Yrotation Xrotation
                      JOINT RightHandPinky3
                      {
                        OFFSET -3.062664 -1e-06 -4e-06
                        CHANNELS 3 Zrotation Yrotation Xrotation
                        JOINT RightHandPinky4
                        {
                          OFFSET -1.546529 2e-06 4e-06
                          CHANNELS 3 Zrotation Yrotation Xrotation
                          JOINT RightHandPinkyEnd
                          {
                            OFFSET -1.952341 0.0 -4e-06
                            CHANNELS 3 Zrotation Yrotation Xrotation
                          }
                        }
                      }
                    }
                  }
                }
              }
            }
          }
        }
      }
    }
    JOINT LeftLeg
    {
      OFFSET -8.443107 2.567604 10.043214
      CHANNELS 3 Zrotation Yrotation Xrotation
      JOINT LeftShin
      {
        OFFSET 43.229198 1e-06 -1e-06
        CHANNELS 3 Zrotation Yrotation Xrotation
        JOINT LeftFoot
        {
          OFFSET 42.298611 1e-06 1e-06
          CHANNELS 3 Zrotation Yrotation Xrotation
          JOINT LeftToeBase
          {
            OFFSET 14.165858 1e-06 0.0
            CHANNELS 3 Zrotation Yrotation Xrotation
            JOINT LeftToeEnd
            {
              OFFSET 6.7141 -0.234461 0.0
              CHANNELS 3 Zrotation Yrotation Xrotation
            }
          }
        }
      }
    }
    JOINT RightLeg
    {
      OFFSET -8.303923 2.592729 -10.047278
      CHANNELS 3 Zrotation Yrotation Xrotation
      JOINT RightShin
      {
        OFFSET -43.369682 0.0 1e-06
        CHANNELS 3 Zrotation Yrotation Xrotation
        JOINT RightFoot
        {
          OFFSET -42.260784 4e-06 2e-06
          CHANNELS 3 Zrotation Yrotation Xrotation
          JOINT RightToeBase
          {
            OFFSET -14.222245 -2e-06 -1e-06
            CHANNELS 3 Zrotation Yrotation Xrotation
            JOINT RightToeEnd
            {
              OFFSET -6.660062 0.232574 -2e-06
              CHANNELS 3 Zrotation Yrotation Xrotation
            }
          }
        }
      }
    }
  }
}
MOTION
Frames: 4
Frame Time: 0.03333333333333333
0.0 0.0 0.0 0.0 -0.0 0.0 0.274867 100.005745 0.239291 91.269516 -0.973827 85.0896 0.328309 -1.992321 -0.261925 -11.278196 -0.882825 -0.609226 15.019179 1.545128 -3.005896 22.730221 7.485192 2.256089 -2.280706 -0.794406 -11.089298 -33.726017 0.03609 -16.953533 6e-06 0.0 1e-06 0.018556 -0.003789 0.032889 0.106448 0.016228 0.020379 0.054456 -0.023386 0.026457 -91.650864 -80.71479 115.005501 70.49987 -44.039749 -48.429165 90.225525 -0.525462 -0.298428 -34.624012 17.110933 -58.523438 17.636623 -26.322727 52.411201 -19.46665 -14.395591 29.410381 -0.0 -8.774816 0.0 16.315346 -18.255905 5.704578 -0.609777 -1.795653 -3.889328 -4.807086 -11.046805 -2.937852 3e-06 -20.976009 -1e-06 -5.019966 -25.033546 -4.03188 6e-06 -1e-06 1e-06 -10.634532 -5.68697 -3.56559 10.573271 -17.922945 -3.113899 3e-06 -13.821203 -1e-06 -0.501774 -31.181488 -4.02702 -11.024808 -59.248611 7.013823 -13.98271 -7.150196 -2.875046 13.772721 -8.401486 -3.21824 0.347733 -34.211529 0.771653 -0.96303 -17.73336 2.621021 0.0 -0.0 1e-06 -17.346413 -20.095213 -4.201783 21.757551 -1.638374 3.866428 1e-06 -6.338821 1e-06 -1.697587 -22.591736 -6.194006 -0.0 -2e-06 -1e-06 48.895683 -84.605011 152.521957 79.234863 -40.92054 -30.24432 83.806831 -1.782888 -0.065935 -28.275303 15.680504 -56.619865 22.182106 -20.375891 49.933323 -16.701818 -16.74353 28.476532 -4e-06 -12.6906 1e-06 16.161844 -17.437674 2.387425 -0.105922 -1.513856 -4.275881 -5.039041 -5.612873 -2.953557 3e-06 -11.020524 -2e-06 -6.1113 -15.895336 -3.840473 2e-06 -0.0 -1e-06 -10.283371 -5.68029 -4.341839 11.028295 -11.302406 -2.372638 -1.384268 -14.238584 -6.320122 -0.625433 -26.924194 -3.827608 -4.339537 -49.020329 -3.28407 -13.708524 -7.363479 -3.720937 18.141151 -14.052738 -3.24268 5e-06 -18.787271 -4e-06 -0.429712 -8.456045 2.555504 -0.0 0.0 2e-06 -15.923534 -20.094492 -5.473588 30.419214 -7.190823 1.735924 3e-06 -8.162929 -2e-06 -1.861901 -22.861469 -6.167946 0.0 -3e-06 -1e-06 177.842453 -2.652286 -9.919739 11.623314 -0.136168 0.203977 -77.660255 -13.229318 -9.69452 -5.903516 1.774473 2.191146 -1.0 1e-06 0.0 -5.720325 -4.557457 -8.870343 17.704056 -0.010104 0.101345 -80.641052 -11.453387 -7.581686 -6.185114 0.525529 1.618443 -1.000002 -0.0 0.0 
0.0 0.0 0.0 0.0 -0.0 0.0 0.395084 100.005104 0.223562 91.187576 -1.111386 84.940643 0.257849 -1.974297 -0.285643 -11.301625 -0.891768 -0.734409 14.974326 1.524293 -3.084927 22.736368 8.124423 2.170459 -2.245181 -0.834212 -11.870956 -33.321999 -0.045613 -17.920628 6e-06 0.0 -1e-06 0.002574 -0.00496 0.047535 0.119638 0.0099 0.035859 0.059603 -0.018656 0.039108 -93.476501 -80.931221 116.751755 70.589111 -43.633617 -47.750877 91.012306 -0.647008 -0.09998 -35.699024 17.477097 -60.297668 17.636631 -26.322729 52.411179 -19.466661 -14.395597 29.410385 -1e-06 -8.774819 1e-06 16.319956 -18.209999 5.743796 -0.609778 -1.795653 -3.889327 -4.807087 -11.046809 -2.937852 3e-06 -20.976015 1e-06 -5.019969 -25.033556 -4.031881 5e-06 -1e-06 0.0 -10.634535 -5.686969 -3.565587 10.573272 -17.922949 -3.113902 4e-06 -13.821206 -0.0 -0.501775 -31.181498 -4.027017 -10.994483 -59.178749 7.009147 -13.982712 -7.150197 -2.875044 13.772729 -8.401492 -3.218242 0.347733 -34.211544 0.771657 -0.963029 -17.73337 2.62102 -0.0 0.0 1e-06 -17.346416 -20.095217 -4.20178 21.757555 -1.638375 3.866428 1e-06 -6.338822 -1e-06 -1.697588 -22.591743 -6.194006 -1e-06 -6e-06 1e-06 47.8881 -84.364594 153.499832 78.669609 -40.029572 -31.117981 83.785767 -1.655331 -0.067247 -28.874529 15.257935 -58.841862 22.182121 -20.375898 49.933327 -16.701815 -16.743528 28.47653 -4e-06 -12.690603 -4e-06 16.037287 -17.371241 2.45385 -0.10592 -1.513855 -4.27588 -5.03904 -5.612871 -2.953557 3e-06 -11.020524 -0.0 -6.111297 -15.895334 -3.840472 -0.0 -1e-06 -1e-06 -10.283372 -5.680287 -4.341839 11.028297 -11.302406 -2.372634 -1.38427 -14.238582 -6.32012 -0.625438 -26.924187 -3.8276 -4.307708 -48.876461 -3.275033 -13.708528 -7.363474 -3.720938 18.141148 -14.052739 -3.242674 6e-06 -18.78727 1e-06 -0.429711 -8.456042 2.555505 1e-06 1e-06 0.0 -15.923536 -20.094482 -5.473584 30.419218 -7.190827 1.735928 2e-06 -8.162927 0.0 -1.861902 -22.861473 -6.167943 -0.0 -4e-06 0.0 177.484024 -2.722241 -10.064054 12.106078 -0.141422 0.198933 -77.899582 -13.203999 -9.63129 -5.946059 1.774893 2.184892 -1.0 0.0 0.0 -5.864612 -4.516361 -8.794477 17.626638 -0.002478 0.108185 -80.536797 -11.432646 -7.606577 -6.221592 0.53664 1.612125 -1.000002 -1e-06 -0.0 
0.0 0.0 0.0 0.0 -0.0 0.0 0.52404 99.994972 0.239806 91.096611 -1.23677 84.771255 0.176782 -1.973958 -0.337916 -11.353055 -0.907927 -0.906261 14.930908 1.512647 -3.237566 22.715849 8.960381 2.135353 -2.197648 -0.965639 -12.778615 -32.899055 -0.254022 -18.973391 6e-06 0.0 -2e-06 -0.014028 -0.005384 0.067349 0.121016 0.007246 0.052571 0.048129 -0.015819 0.05942 -94.307732 -81.247208 117.399933 70.797333 -43.462322 -46.850456 92.035866 -0.648854 0.085851 -36.270573 18.181332 -61.58363 17.636625 -26.322729 52.41119 -19.466656 -14.395596 29.410378 -1e-06 -8.77482 -1e-06 16.254951 -18.184271 5.775435 -0.609775 -1.795654 -3.889331 -4.807087 -11.046809 -2.937852 3e-06 -20.976017 -0.0 -5.019973 -25.03356 -4.031879 7e-06 -0.0 0.0 -10.634532 -5.686969 -3.565589 10.573272 -17.922947 -3.113901 2e-06 -13.821208 0.0 -0.501774 -31.181498 -4.027017 -10.863156 -59.00684 6.93293 -13.982712 -7.150198 -2.875044 13.772726 -8.40149 -3.218242 0.347731 -34.21154 0.771659 -0.963028 -17.733366 2.621019 -0.0 -0.0 1e-06 -17.346413 -20.095215 -4.201784 21.757555 -1.638376 3.86643 1e-06 -6.338822 1e-06 -1.697587 -22.59174 -6.194006 -1e-06 -5e-06 -1e-06 47.390835 -83.937378 153.923599 78.029404 -39.218395 -31.928915 84.268066 -1.379309 -0.038599 -28.995066 15.021282 -60.831482 22.182121 -20.375891 49.933304 -16.701815 -16.743525 28.47653 -4e-06 -12.690601 -4e-06 15.931082 -17.338095 2.502761 -0.105919 -1.513857 -4.27588 -5.039041 -5.612872 -2.953559 5e-06 -11.020525 0.0 -6.111297 -15.895334 -3.840472 0.0 -1e-06 1e-06 -10.283369 -5.680288 -4.341839 11.028296 -11.302407 -2.372633 -1.384267 -14.238581 -6.32012 -0.625437 -26.924191 -3.827597 -4.303431 -48.78429 -3.253442 -13.708527 -7.363475 -3.720936 18.141153 -14.052743 -3.242677 9e-06 -18.78727 -3e-06 -0.42971 -8.456048 2.555502 -0.0 1e-06 0.0 -15.923532 -20.094482 -5.473587 30.419207 -7.190829 1.735925 2e-06 -8.162927 -0.0 -1.861898 -22.861469 -6.167945 -0.0 -2e-06 1e-06 177.124435 -2.807917 -10.256577 12.681137 -0.151704 0.194997 -78.199333 -13.202285 -9.584805 -5.92871 1.751657 2.176387 -0.999998 1e-06 0.0 -5.988678 -4.48719 -8.765573 17.590477 0.006786 0.115859 -80.474846 -11.362739 -7.710034 -6.171094 0.541986 1.607718 -1.000002 0.0 0.0 
0.0 0.0 0.0 0.0 -0.0 0.0 0.645194 99.982277 0.289169 90.997879 -1.325296 84.585869 0.082424 -2.015694 -0.413576 -11.407007 -0.946904 -1.118186 14.907575 1.517364 -3.480407 22.64509 9.991544 2.110003 -2.145335 -1.146415 -13.874317 -32.427422 -0.598405 -20.168245 6e-06 -0.0 -2e-06 -0.029988 -0.007318 0.078123 0.101879 0.012143 0.058687 0.016417 -0.023605 0.071474 -93.671341 -81.671875 116.527565 71.015594 -43.532547 -45.41663 93.409592 -0.485804 0.247146 -36.042416 18.929743 -61.527477 17.636635 -26.322733 52.411205 -19.466665 -14.395597 29.410389 -2e-06 -8.774822 -0.0 16.108692 -18.281099 5.843958 -0.609775 -1.795654 -3.889327 -4.807087 -11.046811 -2.937852 6e-06 -20.976015 -1e-06 -5.019969 -25.03356 -4.031882 6e-06 -0.0 -1e-06 -10.634533 -5.68697 -3.565588 10.573275 -17.922951 -3.1139 4e-06 -13.821211 1e-06 -0.501777 -31.181505 -4.027015 -10.784901 -58.905376 6.85422 -13.982714 -7.150197 -2.875041 13.772731 -8.401495 -3.218241 0.347739 -34.211555 0.771652 -0.963029 -17.733374 2.621023 0.0 -1e-06 0.0 -17.346416 -20.095217 -4.201785 21.757557 -1.638379 3.86643 3e-06 -6.338824 -1e-06 -1.697587 -22.591743 -6.194008 -1e-06 -3e-06 -1e-06 47.676273 -83.274132 153.561264 77.321404 -38.684681 -32.693478 85.252022 -1.083676 0.001929 -28.466261 14.877061 -61.976425 22.18211 -20.375891 49.933319 -16.70182 -16.74353 28.476536 -7e-06 -12.6906 1e-06 15.918258 -17.382191 2.488719 -0.105921 -1.513856 -4.275883 -5.039038 -5.61287 -2.953556 5e-06 -11.020524 -1e-06 -6.111292 -15.895332 -3.840471 -0.0 1e-06 -1e-06 -10.283368 -5.680288 -4.341842 11.028296 -11.302406 -2.372635 -1.384267 -14.238581 -6.32012 -0.625437 -26.924192 -3.827599 -4.328815 -48.787895 -3.221396 -13.708522 -7.363473 -3.720939 18.14115 -14.052741 -3.24268 9e-06 -18.78727 -3e-06 -0.429711 -8.456044 2.555505 0.0 0.0 0.0 -15.923531 -20.094482 -5.473588 30.41921 -7.190831 1.735921 5e-06 -8.162927 -1e-06 -1.861899 -22.861473 -6.167941 0.0 -4e-06 -2e-06 176.875229 -2.916879 -10.530275 13.187674 -0.164493 0.186523 -78.497559 -13.126482 -9.616733 -5.868413 1.707134 2.167339 -0.999999 0.0 0.0 -6.038198 -4.443474 -8.715869 17.533464 0.008104 0.115723 -80.425278 -11.301733 -7.867397 -6.07105 0.535733 1.604613 -1.000001 0.0 0.0 
